STARTFONT 2.1
FONT -FontForge-Okuda-Book-R-Normal--25-240-75-75-P-81-ISO10646-1
SIZE 24 75 75
FONTBOUNDINGBOX 21 27 -2 -5
COMMENT "Generated by fontforge, http://fontforge.sourceforge.net"
COMMENT "Okuda (c) (Neale Davidson). 2011-2014. All Rights Reserved"
STARTPROPERTIES 40
FOUNDRY "FontForge"
FAMILY_NAME "Okuda"
WEIGHT_NAME "Book"
SLANT "R"
SETWIDTH_NAME "Normal"
ADD_STYLE_NAME ""
PIXEL_SIZE 25
POINT_SIZE 240
RESOLUTION_X 75
RESOLUTION_Y 75
SPACING "P"
AVERAGE_WIDTH 81
CHARSET_REGISTRY "ISO10646"
CHARSET_ENCODING "1"
FONTNAME_REGISTRY ""
CHARSET_COLLECTIONS "Symbol ISO10646-1"
FONT_NAME "Okuda"
FACE_NAME "Okuda"
COPYRIGHT "Okuda (c) (Neale Davidson). 2011-2014. All Rights Reserved"
FONT_VERSION "3.50 January 2, 2014"
FONT_ASCENT 20
FONT_DESCENT 5
UNDERLINE_POSITION -4
UNDERLINE_THICKNESS 2
X_HEIGHT 12
CAP_HEIGHT 15
DEFAULT_CHAR 1
RAW_ASCENT 799
RAW_DESCENT 200
NORM_SPACE 6
RELATIVE_WEIGHT 40
RELATIVE_SETWIDTH 50
SUPERSCRIPT_X 0
SUPERSCRIPT_Y 11
SUPERSCRIPT_SIZE 16
SUBSCRIPT_X 0
SUBSCRIPT_Y 3
SUBSCRIPT_SIZE 16
AVG_LOWERCASE_WIDTH 66
AVG_UPPERCASE_WIDTH 70
ENDPROPERTIES
CHARS 244
STARTCHAR .null.dup1
ENCODING 0
SWIDTH 0 0
DWIDTH 0 0
BBX 1 1 0 0
BITMAP
00
ENDCHAR
STARTCHAR .null
ENCODING 29
SWIDTH 0 0
DWIDTH 0 0
BBX 1 1 0 0
BITMAP
00
ENDCHAR
STARTCHAR space
ENCODING 32
SWIDTH 244 0
DWIDTH 6 0
BBX 1 1 0 0
BITMAP
00
ENDCHAR
STARTCHAR exclam
ENCODING 33
SWIDTH 122 0
DWIDTH 3 0
BBX 1 16 1 0
BITMAP
80
80
80
80
80
80
80
80
80
80
80
80
00
00
80
80
ENDCHAR
STARTCHAR quotedbl
ENCODING 34
SWIDTH 249 0
DWIDTH 6 0
BBX 5 3 1 15
BITMAP
D8
D0
B0
ENDCHAR
STARTCHAR numbersign
ENCODING 35
SWIDTH 410 0
DWIDTH 10 0
BBX 9 9 1 5
BITMAP
6600
6600
FF80
6600
6600
FF80
FF80
6600
6600
ENDCHAR
STARTCHAR dollar
ENCODING 36
SWIDTH 268 0
DWIDTH 7 0
BBX 5 16 1 0
BITMAP
60
F8
D8
98
80
C0
C0
60
30
18
18
18
98
F8
F0
60
ENDCHAR
STARTCHAR percent
ENCODING 37
SWIDTH 439 0
DWIDTH 11 0
BBX 9 17 1 0
BITMAP
7000
F980
DB00
9B00
9F00
9E00
DE00
FC00
0C00
1F00
1F80
3D80
3C80
6C80
6C80
CF80
C780
ENDCHAR
STARTCHAR ampersand
ENCODING 38
SWIDTH 292 0
DWIDTH 7 0
BBX 6 17 1 0
BITMAP
60
E0
C0
80
80
98
98
D8
7C
D8
98
98
98
98
98
F8
F0
ENDCHAR
STARTCHAR quotesingle
ENCODING 39
SWIDTH 146 0
DWIDTH 4 0
BBX 2 3 1 15
BITMAP
C0
C0
80
ENDCHAR
STARTCHAR parenleft
ENCODING 40
SWIDTH 219 0
DWIDTH 6 0
BBX 4 20 1 -2
BITMAP
20
60
60
C0
C0
C0
C0
C0
80
80
80
80
C0
C0
C0
C0
40
60
60
30
ENDCHAR
STARTCHAR parenright
ENCODING 41
SWIDTH 219 0
DWIDTH 6 0
BBX 4 20 1 -2
BITMAP
C0
C0
60
60
60
30
30
30
30
30
30
30
30
30
30
60
60
60
C0
C0
ENDCHAR
STARTCHAR asterisk
ENCODING 42
SWIDTH 781 0
DWIDTH 20 0
BBX 18 19 1 -2
BITMAP
008000
000000
010000
002000
020000
049800
008200
41E000
80C800
084040
000000
000040
001440
100880
040100
000400
01C000
200000
200000
ENDCHAR
STARTCHAR plus
ENCODING 43
SWIDTH 264 0
DWIDTH 7 0
BBX 5 6 1 6
BITMAP
60
60
F8
F8
60
60
ENDCHAR
STARTCHAR comma
ENCODING 44
SWIDTH 146 0
DWIDTH 4 0
BBX 2 3 1 -1
BITMAP
C0
C0
80
ENDCHAR
STARTCHAR hyphen
ENCODING 45
SWIDTH 268 0
DWIDTH 7 0
BBX 5 2 1 7
BITMAP
F8
F8
ENDCHAR
STARTCHAR period
ENCODING 46
SWIDTH 122 0
DWIDTH 3 0
BBX 1 2 1 0
BITMAP
80
80
ENDCHAR
STARTCHAR slash
ENCODING 47
SWIDTH 268 0
DWIDTH 7 0
BBX 5 16 1 0
BITMAP
18
18
10
30
30
30
30
60
60
60
60
40
C0
C0
C0
C0
ENDCHAR
STARTCHAR zero
ENCODING 48
SWIDTH 268 0
DWIDTH 7 0
BBX 5 17 1 0
BITMAP
70
F8
D8
98
98
98
98
98
98
98
98
98
98
98
98
F8
F0
ENDCHAR
STARTCHAR one
ENCODING 49
SWIDTH 160 0
DWIDTH 4 0
BBX 3 16 1 0
BITMAP
E0
E0
E0
60
60
60
60
60
60
60
60
60
60
60
60
60
ENDCHAR
STARTCHAR two
ENCODING 50
SWIDTH 268 0
DWIDTH 7 0
BBX 5 17 1 0
BITMAP
70
F8
D8
98
98
18
18
18
30
70
60
C0
C0
80
80
F8
F8
ENDCHAR
STARTCHAR three
ENCODING 51
SWIDTH 268 0
DWIDTH 7 0
BBX 5 17 1 0
BITMAP
70
F8
D8
98
98
18
18
38
70
18
18
18
18
98
98
F8
F0
ENDCHAR
STARTCHAR four
ENCODING 52
SWIDTH 337 0
DWIDTH 8 0
BBX 7 16 1 0
BITMAP
0C
1C
1C
3C
3C
2C
6C
6C
CC
CC
8E
FE
0C
0C
0C
0C
ENDCHAR
STARTCHAR five
ENCODING 53
SWIDTH 268 0
DWIDTH 7 0
BBX 5 16 1 0
BITMAP
F8
80
80
80
80
80
F8
F8
18
18
18
18
98
98
F8
F0
ENDCHAR
STARTCHAR six
ENCODING 54
SWIDTH 268 0
DWIDTH 7 0
BBX 5 17 1 0
BITMAP
70
F8
D8
98
98
80
80
F8
F8
98
98
98
98
98
98
F8
F0
ENDCHAR
STARTCHAR seven
ENCODING 55
SWIDTH 292 0
DWIDTH 7 0
BBX 6 16 1 0
BITMAP
FC
0C
0C
1C
18
18
18
18
30
30
30
30
60
60
60
60
ENDCHAR
STARTCHAR eight
ENCODING 56
SWIDTH 268 0
DWIDTH 7 0
BBX 5 17 1 0
BITMAP
70
F8
D8
98
98
98
98
F8
70
D8
98
98
98
98
98
F8
F0
ENDCHAR
STARTCHAR nine
ENCODING 57
SWIDTH 268 0
DWIDTH 7 0
BBX 5 17 1 0
BITMAP
70
F8
D8
98
98
98
98
98
98
F8
78
18
18
98
98
F8
F0
ENDCHAR
STARTCHAR colon
ENCODING 58
SWIDTH 122 0
DWIDTH 3 0
BBX 1 10 1 0
BITMAP
80
80
00
00
00
00
00
00
80
80
ENDCHAR
STARTCHAR semicolon
ENCODING 59
SWIDTH 146 0
DWIDTH 4 0
BBX 2 11 1 -1
BITMAP
C0
C0
00
00
00
00
00
00
C0
C0
80
ENDCHAR
STARTCHAR less
ENCODING 60
SWIDTH 292 0
DWIDTH 7 0
BBX 5 12 1 2
BITMAP
18
38
30
60
E0
C0
C0
60
70
30
18
18
ENDCHAR
STARTCHAR equal
ENCODING 61
SWIDTH 264 0
DWIDTH 7 0
BBX 5 6 1 6
BITMAP
F8
F8
00
00
F8
F8
ENDCHAR
STARTCHAR greater
ENCODING 62
SWIDTH 292 0
DWIDTH 7 0
BBX 6 12 1 2
BITMAP
C0
60
70
30
18
1C
18
38
30
60
E0
C0
ENDCHAR
STARTCHAR question
ENCODING 63
SWIDTH 268 0
DWIDTH 7 0
BBX 5 17 1 0
BITMAP
70
F8
D8
98
98
18
18
18
18
30
30
60
60
60
00
60
60
ENDCHAR
STARTCHAR at
ENCODING 64
SWIDTH 366 0
DWIDTH 9 0
BBX 8 15 1 1
BITMAP
38
FE
C6
83
9F
BF
B3
B3
B3
B3
BF
9F
80
FC
FC
ENDCHAR
STARTCHAR A
ENCODING 65
SWIDTH 292 0
DWIDTH 7 0
BBX 7 16 0 0
BITMAP
38
38
38
38
3C
3C
3C
7C
6C
6C
6C
7C
6E
66
E6
E6
ENDCHAR
STARTCHAR B
ENCODING 66
SWIDTH 292 0
DWIDTH 7 0
BBX 6 16 1 0
BITMAP
F8
9C
8C
8C
8C
8C
9C
F8
9C
8C
8C
8C
8C
8C
F8
F8
ENDCHAR
STARTCHAR C
ENCODING 67
SWIDTH 292 0
DWIDTH 7 0
BBX 6 17 1 0
BITMAP
70
F8
CC
8C
8C
80
80
80
80
80
80
80
80
8C
8C
FC
F8
ENDCHAR
STARTCHAR D
ENCODING 68
SWIDTH 292 0
DWIDTH 7 0
BBX 6 16 1 0
BITMAP
F8
9C
8C
8C
8C
8C
8C
8C
8C
8C
8C
8C
8C
8C
F8
F8
ENDCHAR
STARTCHAR E
ENCODING 69
SWIDTH 292 0
DWIDTH 7 0
BBX 6 16 1 0
BITMAP
FC
80
80
80
80
80
80
F8
F8
80
80
80
80
80
FC
FC
ENDCHAR
STARTCHAR F
ENCODING 70
SWIDTH 292 0
DWIDTH 7 0
BBX 6 16 1 0
BITMAP
FC
80
80
80
80
80
80
F8
F8
80
80
80
80
80
80
80
ENDCHAR
STARTCHAR G
ENCODING 71
SWIDTH 292 0
DWIDTH 7 0
BBX 6 17 1 0
BITMAP
70
F8
CC
8C
8C
80
80
80
80
9C
9C
8C
8C
8C
8C
FC
FC
ENDCHAR
STARTCHAR H
ENCODING 72
SWIDTH 292 0
DWIDTH 7 0
BBX 6 16 1 0
BITMAP
8C
8C
8C
8C
8C
8C
FC
FC
8C
8C
8C
8C
8C
8C
8C
8C
ENDCHAR
STARTCHAR I
ENCODING 73
SWIDTH 122 0
DWIDTH 3 0
BBX 1 16 1 0
BITMAP
80
80
80
80
80
80
80
80
80
80
80
80
80
80
80
80
ENDCHAR
STARTCHAR J
ENCODING 74
SWIDTH 292 0
DWIDTH 7 0
BBX 6 16 1 0
BITMAP
0C
0C
0C
0C
0C
0C
0C
0C
0C
0C
0C
0C
8C
8C
FC
F8
ENDCHAR
STARTCHAR K
ENCODING 75
SWIDTH 292 0
DWIDTH 7 0
BBX 6 16 1 0
BITMAP
8C
98
B8
B0
F0
E0
C0
C0
E0
E0
B0
B0
98
98
9C
8C
ENDCHAR
STARTCHAR L
ENCODING 76
SWIDTH 268 0
DWIDTH 7 0
BBX 5 16 1 0
BITMAP
80
80
80
80
80
80
80
80
80
80
80
80
80
80
F8
F8
ENDCHAR
STARTCHAR M
ENCODING 77
SWIDTH 415 0
DWIDTH 10 0
BBX 9 16 1 0
BITMAP
C380
C380
E380
E380
E780
E780
A780
B780
B580
BD80
BD80
BD80
9D80
9D80
9980
9980
ENDCHAR
STARTCHAR N
ENCODING 78
SWIDTH 317 0
DWIDTH 8 0
BBX 6 16 1 0
BITMAP
CC
CC
EC
EC
EC
EC
AC
BC
BC
BC
9C
9C
9C
9C
8C
8C
ENDCHAR
STARTCHAR O
ENCODING 79
SWIDTH 292 0
DWIDTH 7 0
BBX 6 17 1 0
BITMAP
70
F8
CC
8C
8C
8C
8C
8C
8C
8C
8C
8C
8C
8C
8C
FC
F8
ENDCHAR
STARTCHAR P
ENCODING 80
SWIDTH 292 0
DWIDTH 7 0
BBX 6 16 1 0
BITMAP
F8
9C
8C
8C
8C
8C
8C
FC
F8
80
80
80
80
80
80
80
ENDCHAR
STARTCHAR Q
ENCODING 81
SWIDTH 292 0
DWIDTH 7 0
BBX 6 18 1 -2
BITMAP
F8
CC
8C
8C
8C
8C
8C
8C
8C
8C
8C
8C
8C
8C
FC
F8
30
3C
ENDCHAR
STARTCHAR R
ENCODING 82
SWIDTH 268 0
DWIDTH 7 0
BBX 5 16 1 0
BITMAP
F8
98
98
98
98
98
98
F8
F0
98
98
98
98
98
98
98
ENDCHAR
STARTCHAR S
ENCODING 83
SWIDTH 292 0
DWIDTH 7 0
BBX 6 17 1 0
BITMAP
70
F8
CC
8C
8C
80
C0
E0
70
38
18
0C
0C
8C
8C
FC
F8
ENDCHAR
STARTCHAR T
ENCODING 84
SWIDTH 292 0
DWIDTH 7 0
BBX 6 16 1 0
BITMAP
FC
30
30
30
30
30
30
30
30
30
30
30
30
30
30
30
ENDCHAR
STARTCHAR U
ENCODING 85
SWIDTH 292 0
DWIDTH 7 0
BBX 6 16 1 0
BITMAP
8C
8C
8C
8C
8C
8C
8C
8C
8C
8C
8C
8C
8C
8C
FC
F8
ENDCHAR
STARTCHAR V
ENCODING 86
SWIDTH 292 0
DWIDTH 7 0
BBX 7 16 0 0
BITMAP
E6
66
6E
6E
6C
6C
6C
6C
7C
3C
3C
38
38
38
38
38
ENDCHAR
STARTCHAR W
ENCODING 87
SWIDTH 476 0
DWIDTH 12 0
BBX 11 16 0 0
BITMAP
E660
6660
6E60
6F60
6F60
6F60
6F60
6FE0
7FC0
3FC0
3FC0
3BC0
39C0
39C0
39C0
39C0
ENDCHAR
STARTCHAR X
ENCODING 88
SWIDTH 292 0
DWIDTH 7 0
BBX 7 16 0 0
BITMAP
66
6C
6C
7C
3C
38
38
18
38
38
38
3C
6C
6C
6E
E6
ENDCHAR
STARTCHAR Y
ENCODING 89
SWIDTH 292 0
DWIDTH 7 0
BBX 6 16 1 0
BITMAP
CC
D8
D8
F8
78
70
70
30
30
30
30
30
30
30
30
30
ENDCHAR
STARTCHAR Z
ENCODING 90
SWIDTH 292 0
DWIDTH 7 0
BBX 6 16 1 0
BITMAP
FC
0C
18
18
18
30
30
30
60
60
60
C0
C0
C0
FC
FC
ENDCHAR
STARTCHAR bracketleft
ENCODING 91
SWIDTH 219 0
DWIDTH 6 0
BBX 4 20 1 -2
BITMAP
F0
F0
80
80
80
80
80
80
80
80
80
80
80
80
80
80
80
80
F0
F0
ENDCHAR
STARTCHAR backslash
ENCODING 92
SWIDTH 268 0
DWIDTH 7 0
BBX 5 16 1 0
BITMAP
C0
C0
C0
C0
60
60
60
60
20
30
30
30
30
18
18
18
ENDCHAR
STARTCHAR bracketright
ENCODING 93
SWIDTH 219 0
DWIDTH 6 0
BBX 4 20 1 -2
BITMAP
F0
F0
30
30
30
30
30
30
30
30
30
30
30
30
30
30
30
30
F0
F0
ENDCHAR
STARTCHAR asciicircum
ENCODING 94
SWIDTH 292 0
DWIDTH 7 0
BBX 6 3 1 18
BITMAP
30
58
CC
ENDCHAR
STARTCHAR underscore
ENCODING 95
SWIDTH 336 0
DWIDTH 8 0
BBX 8 2 1 -3
BITMAP
FF
FF
ENDCHAR
STARTCHAR grave
ENCODING 96
SWIDTH 292 0
DWIDTH 7 0
BBX 5 3 1 18
BITMAP
E0
78
08
ENDCHAR
STARTCHAR a
ENCODING 97
SWIDTH 268 0
DWIDTH 7 0
BBX 5 13 1 0
BITMAP
F0
F8
98
98
18
78
F8
D8
98
98
98
F8
F8
ENDCHAR
STARTCHAR b
ENCODING 98
SWIDTH 268 0
DWIDTH 7 0
BBX 5 16 1 0
BITMAP
80
80
80
B0
F8
98
98
98
98
98
98
98
98
98
F8
F0
ENDCHAR
STARTCHAR c
ENCODING 99
SWIDTH 268 0
DWIDTH 7 0
BBX 5 13 1 0
BITMAP
F0
F8
98
98
80
80
80
80
80
98
98
F8
F0
ENDCHAR
STARTCHAR d
ENCODING 100
SWIDTH 268 0
DWIDTH 7 0
BBX 5 16 1 0
BITMAP
18
18
18
F8
F8
98
98
98
98
98
98
98
98
98
F8
F8
ENDCHAR
STARTCHAR e
ENCODING 101
SWIDTH 268 0
DWIDTH 7 0
BBX 5 13 1 0
BITMAP
F0
F8
98
98
98
98
F8
80
80
98
98
F8
F0
ENDCHAR
STARTCHAR f
ENCODING 102
SWIDTH 219 0
DWIDTH 6 0
BBX 4 16 1 0
BITMAP
70
60
60
F0
F0
60
60
60
60
60
60
60
60
60
60
60
ENDCHAR
STARTCHAR g
ENCODING 103
SWIDTH 268 0
DWIDTH 7 0
BBX 5 17 1 -4
BITMAP
F8
F8
98
98
98
98
98
98
98
98
98
F8
F8
18
98
F8
F0
ENDCHAR
STARTCHAR h
ENCODING 104
SWIDTH 268 0
DWIDTH 7 0
BBX 5 16 1 0
BITMAP
80
80
80
B0
F8
98
98
98
98
98
98
98
98
98
98
98
ENDCHAR
STARTCHAR i
ENCODING 105
SWIDTH 117 0
DWIDTH 3 0
BBX 1 16 1 0
BITMAP
80
00
00
80
80
80
80
80
80
80
80
80
80
80
80
80
ENDCHAR
STARTCHAR j
ENCODING 106
SWIDTH 189 0
DWIDTH 5 0
BBX 3 20 1 -4
BITMAP
60
00
00
60
60
60
60
60
60
60
60
60
60
60
60
60
60
60
E0
C0
ENDCHAR
STARTCHAR k
ENCODING 107
SWIDTH 264 0
DWIDTH 7 0
BBX 5 16 1 0
BITMAP
80
80
80
98
98
90
B0
A0
E0
E0
E0
A0
B0
B0
90
98
ENDCHAR
STARTCHAR l
ENCODING 108
SWIDTH 122 0
DWIDTH 3 0
BBX 1 16 1 0
BITMAP
80
80
80
80
80
80
80
80
80
80
80
80
80
80
80
80
ENDCHAR
STARTCHAR m
ENCODING 109
SWIDTH 415 0
DWIDTH 10 0
BBX 9 13 1 0
BITMAP
BF00
FF80
9980
9980
9980
9980
9980
9980
9980
9980
9980
9980
9980
ENDCHAR
STARTCHAR n
ENCODING 110
SWIDTH 268 0
DWIDTH 7 0
BBX 5 13 1 0
BITMAP
B0
F8
98
98
98
98
98
98
98
98
98
98
98
ENDCHAR
STARTCHAR o
ENCODING 111
SWIDTH 268 0
DWIDTH 7 0
BBX 5 13 1 0
BITMAP
F0
F8
98
98
98
98
98
98
98
98
98
F8
F0
ENDCHAR
STARTCHAR p
ENCODING 112
SWIDTH 268 0
DWIDTH 7 0
BBX 5 17 1 -4
BITMAP
B0
F8
98
98
98
98
98
98
98
98
98
F8
F0
80
80
80
80
ENDCHAR
STARTCHAR q
ENCODING 113
SWIDTH 268 0
DWIDTH 7 0
BBX 5 17 1 -4
BITMAP
F8
F8
98
98
98
98
98
98
98
98
98
F8
F8
18
18
18
18
ENDCHAR
STARTCHAR r
ENCODING 114
SWIDTH 268 0
DWIDTH 7 0
BBX 5 13 1 0
BITMAP
B0
F8
98
80
80
80
80
80
80
80
80
80
80
ENDCHAR
STARTCHAR s
ENCODING 115
SWIDTH 268 0
DWIDTH 7 0
BBX 5 13 1 0
BITMAP
F0
F8
98
98
C0
C0
60
30
18
98
98
F8
F0
ENDCHAR
STARTCHAR t
ENCODING 116
SWIDTH 205 0
DWIDTH 5 0
BBX 4 16 1 0
BITMAP
60
60
60
F0
F0
60
60
60
60
60
60
60
60
60
70
70
ENDCHAR
STARTCHAR u
ENCODING 117
SWIDTH 268 0
DWIDTH 7 0
BBX 5 13 1 0
BITMAP
98
98
98
98
98
98
98
98
98
98
98
F8
F8
ENDCHAR
STARTCHAR v
ENCODING 118
SWIDTH 292 0
DWIDTH 7 0
BBX 6 13 1 0
BITMAP
CC
CC
CC
D8
D8
58
58
78
70
70
70
30
30
ENDCHAR
STARTCHAR w
ENCODING 119
SWIDTH 410 0
DWIDTH 10 0
BBX 9 13 1 0
BITMAP
D980
D980
D900
DD00
DF00
DF00
5F00
7F00
7F00
7600
7600
7600
6600
ENDCHAR
STARTCHAR x
ENCODING 120
SWIDTH 292 0
DWIDTH 7 0
BBX 6 13 1 0
BITMAP
CC
C8
D8
78
70
70
30
70
70
78
D8
C8
CC
ENDCHAR
STARTCHAR y
ENCODING 121
SWIDTH 292 0
DWIDTH 7 0
BBX 6 17 1 -4
BITMAP
CC
CC
CC
D8
D8
58
58
78
70
70
70
30
30
30
20
E0
C0
ENDCHAR
STARTCHAR z
ENCODING 122
SWIDTH 263 0
DWIDTH 7 0
BBX 5 13 1 0
BITMAP
F8
F8
18
18
30
30
60
60
60
C0
C0
F8
F8
ENDCHAR
STARTCHAR braceleft
ENCODING 123
SWIDTH 244 0
DWIDTH 6 0
BBX 5 20 1 -2
BITMAP
38
78
60
60
60
60
60
60
60
C0
E0
60
60
60
60
60
60
60
78
38
ENDCHAR
STARTCHAR bar
ENCODING 124
SWIDTH 122 0
DWIDTH 3 0
BBX 1 20 1 -2
BITMAP
80
80
80
80
80
80
80
80
80
80
80
80
80
80
80
80
80
80
80
80
ENDCHAR
STARTCHAR braceright
ENCODING 125
SWIDTH 244 0
DWIDTH 6 0
BBX 5 20 1 -2
BITMAP
C0
E0
60
60
60
60
60
60
60
38
78
60
60
60
60
60
60
60
E0
C0
ENDCHAR
STARTCHAR asciitilde
ENCODING 126
SWIDTH 317 0
DWIDTH 8 0
BBX 6 3 1 18
BITMAP
6C
FC
D8
ENDCHAR
STARTCHAR space.dup2
ENCODING 160
SWIDTH 244 0
DWIDTH 6 0
BBX 1 1 0 0
BITMAP
00
ENDCHAR
STARTCHAR exclamdown
ENCODING 161
SWIDTH 122 0
DWIDTH 3 0
BBX 1 16 1 0
BITMAP
80
00
00
80
80
80
80
80
80
80
80
80
80
80
80
80
ENDCHAR
STARTCHAR cent
ENCODING 162
SWIDTH 268 0
DWIDTH 7 0
BBX 5 16 1 0
BITMAP
60
70
F8
98
98
98
80
80
80
80
98
98
D8
F8
60
60
ENDCHAR
STARTCHAR sterling
ENCODING 163
SWIDTH 292 0
DWIDTH 7 0
BBX 6 17 1 0
BITMAP
3C
7C
60
60
60
60
60
60
F0
F0
60
60
60
60
60
FC
FC
ENDCHAR
STARTCHAR currency
ENCODING 164
SWIDTH 305 0
DWIDTH 8 0
BBX 6 13 1 2
BITMAP
CC
CC
F8
F8
D8
C8
C8
C8
D8
F8
F8
C8
CC
ENDCHAR
STARTCHAR yen
ENCODING 165
SWIDTH 292 0
DWIDTH 7 0
BBX 6 16 1 0
BITMAP
CC
D8
D8
F8
78
70
70
FC
FC
30
30
FC
FC
30
30
30
ENDCHAR
STARTCHAR brokenbar
ENCODING 166
SWIDTH 122 0
DWIDTH 3 0
BBX 1 20 1 -2
BITMAP
80
80
80
80
80
80
80
80
80
00
00
80
80
80
80
80
80
80
80
80
ENDCHAR
STARTCHAR section
ENCODING 167
SWIDTH 292 0
DWIDTH 7 0
BBX 6 20 1 -2
BITMAP
78
F8
8C
8C
8C
A0
F8
D8
C8
C8
C8
D8
FC
7C
0C
8C
8C
CC
F8
20
ENDCHAR
STARTCHAR dieresis
ENCODING 168
SWIDTH 244 0
DWIDTH 6 0
BBX 5 2 1 18
BITMAP
98
98
ENDCHAR
STARTCHAR copyright
ENCODING 169
SWIDTH 366 0
DWIDTH 9 0
BBX 8 13 1 6
BITMAP
38
6C
C6
AA
AA
A2
A3
A2
AA
AA
D6
6C
38
ENDCHAR
STARTCHAR ordfeminine
ENCODING 170
SWIDTH 805 0
DWIDTH 20 0
BBX 18 18 0 0
BITMAP
800040
000000
000000
000000
000000
000000
000000
000000
000000
000000
000000
000000
000000
000000
000000
000000
000000
000040
ENDCHAR
STARTCHAR guillemotleft
ENCODING 171
SWIDTH 439 0
DWIDTH 11 0
BBX 9 12 1 2
BITMAP
1980
3B00
3700
6600
EC00
DC00
CC00
6E00
7600
3300
1B00
1980
ENDCHAR
STARTCHAR logicalnot
ENCODING 172
SWIDTH 495 0
DWIDTH 12 0
BBX 10 6 2 3
BITMAP
FFC0
0040
0040
0040
0040
0040
ENDCHAR
STARTCHAR hyphen.dup3
ENCODING 173
SWIDTH 268 0
DWIDTH 7 0
BBX 5 2 1 7
BITMAP
F8
F8
ENDCHAR
STARTCHAR registered
ENCODING 174
SWIDTH 366 0
DWIDTH 9 0
BBX 8 13 1 6
BITMAP
38
6C
C6
AA
AA
AA
B3
AA
AA
AA
EE
6C
38
ENDCHAR
STARTCHAR macron
ENCODING 175
SWIDTH 805 0
DWIDTH 20 0
BBX 18 18 0 0
BITMAP
800040
000000
000000
000000
000000
000000
000000
000000
000000
000000
000000
000000
000000
000000
000000
000000
000000
000040
ENDCHAR
STARTCHAR degree
ENCODING 176
SWIDTH 329 0
DWIDTH 8 0
BBX 7 7 1 11
BITMAP
10
64
42
82
82
42
3C
ENDCHAR
STARTCHAR plusminus
ENCODING 177
SWIDTH 805 0
DWIDTH 20 0
BBX 18 18 0 0
BITMAP
800040
000000
000000
000000
000000
000000
000000
000000
000000
000000
000000
000000
000000
000000
000000
000000
000000
000040
ENDCHAR
STARTCHAR uni00B2
ENCODING 178
SWIDTH 805 0
DWIDTH 20 0
BBX 18 18 0 0
BITMAP
800040
000000
000000
000000
000000
000000
000000
000000
000000
000000
000000
000000
000000
000000
000000
000000
000000
000040
ENDCHAR
STARTCHAR uni00B3
ENCODING 179
SWIDTH 805 0
DWIDTH 20 0
BBX 18 18 0 0
BITMAP
800040
000000
000000
000000
000000
000000
000000
000000
000000
000000
000000
000000
000000
000000
000000
000000
000000
000040
ENDCHAR
STARTCHAR acute
ENCODING 180
SWIDTH 292 0
DWIDTH 7 0
BBX 5 3 1 18
BITMAP
38
F0
80
ENDCHAR
STARTCHAR mu
ENCODING 181
SWIDTH 268 0
DWIDTH 7 0
BBX 5 17 1 -4
BITMAP
98
98
98
98
98
98
98
98
98
98
98
F8
F8
80
80
80
80
ENDCHAR
STARTCHAR paragraph
ENCODING 182
SWIDTH 500 0
DWIDTH 13 0
BBX 10 18 2 0
BITMAP
0FC0
7900
F900
F900
F900
F900
F900
7900
3900
0900
0900
0900
0900
0900
0900
0900
0900
0900
ENDCHAR
STARTCHAR periodcentered
ENCODING 183
SWIDTH 122 0
DWIDTH 3 0
BBX 1 2 1 8
BITMAP
80
80
ENDCHAR
STARTCHAR cedilla
ENCODING 184
SWIDTH 292 0
DWIDTH 7 0
BBX 6 6 1 -4
BITMAP
10
18
0C
8C
F8
78
ENDCHAR
STARTCHAR uni00B9
ENCODING 185
SWIDTH 805 0
DWIDTH 20 0
BBX 18 18 0 0
BITMAP
800040
000000
000000
000000
000000
000000
000000
000000
000000
000000
000000
000000
000000
000000
000000
000000
000000
000040
ENDCHAR
STARTCHAR ordmasculine
ENCODING 186
SWIDTH 805 0
DWIDTH 20 0
BBX 18 18 0 0
BITMAP
800040
000000
000000
000000
000000
000000
000000
000000
000000
000000
000000
000000
000000
000000
000000
000000
000000
000040
ENDCHAR
STARTCHAR guillemotright
ENCODING 187
SWIDTH 439 0
DWIDTH 11 0
BBX 9 12 1 2
BITMAP
CC00
6E00
7600
3300
1B80
1D80
1980
3B00
3700
6600
EC00
DC00
ENDCHAR
STARTCHAR onequarter
ENCODING 188
SWIDTH 805 0
DWIDTH 20 0
BBX 18 18 0 0
BITMAP
800040
000000
000000
000000
000000
000000
000000
000000
000000
000000
000000
000000
000000
000000
000000
000000
000000
000040
ENDCHAR
STARTCHAR onehalf
ENCODING 189
SWIDTH 805 0
DWIDTH 20 0
BBX 18 18 0 0
BITMAP
800040
000000
000000
000000
000000
000000
000000
000000
000000
000000
000000
000000
000000
000000
000000
000000
000000
000040
ENDCHAR
STARTCHAR threequarters
ENCODING 190
SWIDTH 805 0
DWIDTH 20 0
BBX 18 18 0 0
BITMAP
800040
000000
000000
000000
000000
000000
000000
000000
000000
000000
000000
000000
000000
000000
000000
000000
000000
000040
ENDCHAR
STARTCHAR questiondown
ENCODING 191
SWIDTH 268 0
DWIDTH 7 0
BBX 5 16 1 0
BITMAP
30
00
00
30
30
60
60
C0
C0
C0
80
80
98
98
F8
F0
ENDCHAR
STARTCHAR Agrave
ENCODING 192
SWIDTH 292 0
DWIDTH 7 0
BBX 7 21 0 0
BITMAP
70
3C
04
00
00
38
38
38
38
3C
3C
3C
7C
6C
6C
6C
7C
6E
66
E6
E6
ENDCHAR
STARTCHAR Aacute
ENCODING 193
SWIDTH 292 0
DWIDTH 7 0
BBX 7 21 0 0
BITMAP
1C
78
40
00
00
38
38
38
38
3C
3C
3C
7C
6C
6C
6C
7C
6E
66
E6
E6
ENDCHAR
STARTCHAR Acircumflex
ENCODING 194
SWIDTH 292 0
DWIDTH 7 0
BBX 7 21 0 0
BITMAP
18
2C
66
00
00
38
38
38
38
3C
3C
3C
7C
6C
6C
6C
7C
6E
66
E6
E6
ENDCHAR
STARTCHAR Atilde
ENCODING 195
SWIDTH 292 0
DWIDTH 7 0
BBX 7 21 0 0
BITMAP
36
7E
CC
00
00
38
38
38
38
3C
3C
3C
7C
6C
6C
6C
7C
6E
66
E6
E6
ENDCHAR
STARTCHAR Adieresis
ENCODING 196
SWIDTH 292 0
DWIDTH 7 0
BBX 7 20 0 0
BITMAP
6C
6C
00
00
38
38
38
38
3C
3C
3C
7C
6C
6C
6C
7C
6E
66
E6
E6
ENDCHAR
STARTCHAR Aring
ENCODING 197
SWIDTH 292 0
DWIDTH 7 0
BBX 7 22 0 0
BITMAP
38
3C
3C
38
00
00
38
38
38
38
3C
3C
3C
7C
6C
6C
6C
7C
6E
66
E6
E6
ENDCHAR
STARTCHAR AE
ENCODING 198
SWIDTH 463 0
DWIDTH 12 0
BBX 11 16 0 0
BITMAP
3FE0
3E00
3E00
3E00
3E00
3E00
3E00
7FC0
6FC0
6E00
6E00
7E00
6E00
6600
E7E0
E7E0
ENDCHAR
STARTCHAR Ccedilla
ENCODING 199
SWIDTH 292 0
DWIDTH 7 0
BBX 6 22 1 -5
BITMAP
70
F8
CC
8C
8C
80
80
80
80
80
80
80
80
8C
8C
FC
F8
1C
0C
DC
F8
20
ENDCHAR
STARTCHAR Egrave
ENCODING 200
SWIDTH 292 0
DWIDTH 7 0
BBX 6 21 1 0
BITMAP
E0
78
08
00
00
FC
80
80
80
80
80
80
F8
F8
80
80
80
80
80
FC
FC
ENDCHAR
STARTCHAR Eacute
ENCODING 201
SWIDTH 292 0
DWIDTH 7 0
BBX 6 21 1 0
BITMAP
38
F0
80
00
00
FC
80
80
80
80
80
80
F8
F8
80
80
80
80
80
FC
FC
ENDCHAR
STARTCHAR Ecircumflex
ENCODING 202
SWIDTH 292 0
DWIDTH 7 0
BBX 6 21 1 0
BITMAP
30
58
CC
00
00
FC
80
80
80
80
80
80
F8
F8
80
80
80
80
80
FC
FC
ENDCHAR
STARTCHAR Edieresis
ENCODING 203
SWIDTH 292 0
DWIDTH 7 0
BBX 6 20 1 0
BITMAP
D8
D8
00
00
FC
80
80
80
80
80
80
F8
F8
80
80
80
80
80
FC
FC
ENDCHAR
STARTCHAR Igrave
ENCODING 204
SWIDTH 122 0
DWIDTH 3 0
BBX 5 21 -1 0
BITMAP
E0
78
08
00
00
20
20
20
20
20
20
20
20
20
20
20
20
20
20
20
20
ENDCHAR
STARTCHAR Iacute
ENCODING 205
SWIDTH 122 0
DWIDTH 3 0
BBX 5 21 -1 0
BITMAP
38
F0
80
00
00
20
20
20
20
20
20
20
20
20
20
20
20
20
20
20
20
ENDCHAR
STARTCHAR Icircumflex
ENCODING 206
SWIDTH 122 0
DWIDTH 3 0
BBX 5 21 -1 0
BITMAP
70
58
88
00
00
20
20
20
20
20
20
20
20
20
20
20
20
20
20
20
20
ENDCHAR
STARTCHAR Idieresis
ENCODING 207
SWIDTH 122 0
DWIDTH 3 0
BBX 5 20 -1 0
BITMAP
D8
D8
00
00
20
20
20
20
20
20
20
20
20
20
20
20
20
20
20
20
ENDCHAR
STARTCHAR Eth
ENCODING 208
SWIDTH 317 0
DWIDTH 8 0
BBX 7 16 1 0
BITMAP
7C
66
66
66
66
66
66
F6
F6
66
66
66
66
66
7E
7C
ENDCHAR
STARTCHAR Ntilde
ENCODING 209
SWIDTH 317 0
DWIDTH 8 0
BBX 6 21 1 0
BITMAP
6C
FC
D8
00
00
CC
CC
EC
EC
EC
EC
AC
BC
BC
BC
9C
9C
9C
9C
8C
8C
ENDCHAR
STARTCHAR Ograve
ENCODING 210
SWIDTH 292 0
DWIDTH 7 0
BBX 6 21 1 0
BITMAP
E0
78
08
00
70
F8
CC
8C
8C
8C
8C
8C
8C
8C
8C
8C
8C
8C
8C
FC
F8
ENDCHAR
STARTCHAR Oacute
ENCODING 211
SWIDTH 292 0
DWIDTH 7 0
BBX 6 21 1 0
BITMAP
38
F0
80
00
70
F8
CC
8C
8C
8C
8C
8C
8C
8C
8C
8C
8C
8C
8C
FC
F8
ENDCHAR
STARTCHAR Ocircumflex
ENCODING 212
SWIDTH 292 0
DWIDTH 7 0
BBX 6 21 1 0
BITMAP
30
58
CC
00
70
F8
CC
8C
8C
8C
8C
8C
8C
8C
8C
8C
8C
8C
8C
FC
F8
ENDCHAR
STARTCHAR Otilde
ENCODING 213
SWIDTH 292 0
DWIDTH 7 0
BBX 7 21 0 0
BITMAP
36
7E
CC
00
38
7C
66
46
46
46
46
46
46
46
46
46
46
46
46
7E
7C
ENDCHAR
STARTCHAR Odieresis
ENCODING 214
SWIDTH 292 0
DWIDTH 7 0
BBX 6 20 1 0
BITMAP
D8
D8
00
70
F8
CC
8C
8C
8C
8C
8C
8C
8C
8C
8C
8C
8C
8C
FC
F8
ENDCHAR
STARTCHAR multiply
ENCODING 215
SWIDTH 292 0
DWIDTH 7 0
BBX 6 13 1 2
BITMAP
CC
CC
D8
58
78
70
30
70
70
78
D8
C8
CC
ENDCHAR
STARTCHAR Oslash
ENCODING 216
SWIDTH 292 0
DWIDTH 7 0
BBX 6 17 1 0
BITMAP
70
F8
DC
9C
9C
9C
BC
BC
BC
AC
EC
EC
EC
CC
CC
FC
F8
ENDCHAR
STARTCHAR Ugrave
ENCODING 217
SWIDTH 292 0
DWIDTH 7 0
BBX 6 21 1 0
BITMAP
E0
78
08
00
00
8C
8C
8C
8C
8C
8C
8C
8C
8C
8C
8C
8C
8C
8C
FC
F8
ENDCHAR
STARTCHAR Uacute
ENCODING 218
SWIDTH 292 0
DWIDTH 7 0
BBX 6 21 1 0
BITMAP
38
F0
80
00
00
8C
8C
8C
8C
8C
8C
8C
8C
8C
8C
8C
8C
8C
8C
FC
F8
ENDCHAR
STARTCHAR Ucircumflex
ENCODING 219
SWIDTH 292 0
DWIDTH 7 0
BBX 6 21 1 0
BITMAP
30
58
CC
00
00
8C
8C
8C
8C
8C
8C
8C
8C
8C
8C
8C
8C
8C
8C
FC
F8
ENDCHAR
STARTCHAR Udieresis
ENCODING 220
SWIDTH 292 0
DWIDTH 7 0
BBX 6 20 1 0
BITMAP
D8
D8
00
00
8C
8C
8C
8C
8C
8C
8C
8C
8C
8C
8C
8C
8C
8C
FC
F8
ENDCHAR
STARTCHAR Yacute
ENCODING 221
SWIDTH 292 0
DWIDTH 7 0
BBX 6 21 1 0
BITMAP
38
F0
80
00
00
CC
D8
D8
F8
78
70
70
30
30
30
30
30
30
30
30
30
ENDCHAR
STARTCHAR Thorn
ENCODING 222
SWIDTH 292 0
DWIDTH 7 0
BBX 6 16 1 0
BITMAP
80
80
80
F8
9C
8C
8C
8C
8C
8C
8C
F8
F8
80
80
80
ENDCHAR
STARTCHAR germandbls
ENCODING 223
SWIDTH 292 0
DWIDTH 7 0
BBX 6 17 1 0
BITMAP
70
F8
CC
8C
8C
8C
8C
9C
B8
9C
8C
8C
8C
8C
8C
BC
B8
ENDCHAR
STARTCHAR agrave
ENCODING 224
SWIDTH 268 0
DWIDTH 7 0
BBX 6 18 0 0
BITMAP
20
F8
1C
00
00
78
7C
4C
4C
0C
3C
7C
6C
4C
4C
4C
7C
7C
ENDCHAR
STARTCHAR aacute
ENCODING 225
SWIDTH 268 0
DWIDTH 7 0
BBX 5 17 1 0
BITMAP
78
E0
00
00
F0
F8
98
98
18
78
F8
D8
98
98
98
F8
F8
ENDCHAR
STARTCHAR acircumflex
ENCODING 226
SWIDTH 268 0
DWIDTH 7 0
BBX 5 17 1 0
BITMAP
70
D8
00
00
F0
F8
98
98
18
78
F8
D8
98
98
98
F8
F8
ENDCHAR
STARTCHAR atilde
ENCODING 227
SWIDTH 268 0
DWIDTH 7 0
BBX 7 17 0 0
BITMAP
7E
FC
00
00
78
7C
4C
4C
0C
3C
7C
6C
4C
4C
4C
7C
7C
ENDCHAR
STARTCHAR adieresis
ENCODING 228
SWIDTH 268 0
DWIDTH 7 0
BBX 5 16 1 0
BITMAP
D8
00
00
F0
F8
98
98
18
78
F8
D8
98
98
98
F8
F8
ENDCHAR
STARTCHAR aring
ENCODING 229
SWIDTH 268 0
DWIDTH 7 0
BBX 5 18 1 0
BITMAP
70
F0
F0
70
00
F0
F8
98
98
18
78
F8
D8
98
98
98
F8
F8
ENDCHAR
STARTCHAR ae
ENCODING 230
SWIDTH 402 0
DWIDTH 10 0
BBX 9 13 1 0
BITMAP
FF00
FF80
9980
9980
1980
7980
FF80
D800
9800
9980
9980
FF80
FF00
ENDCHAR
STARTCHAR ccedilla
ENCODING 231
SWIDTH 268 0
DWIDTH 7 0
BBX 6 18 0 -5
BITMAP
78
7C
4C
4C
40
40
40
40
40
4C
4C
7C
7C
0C
04
EC
7C
10
ENDCHAR
STARTCHAR egrave
ENCODING 232
SWIDTH 268 0
DWIDTH 7 0
BBX 6 18 0 0
BITMAP
20
F8
1C
00
00
78
7C
4C
4C
4C
4C
7C
40
40
4C
4C
7C
78
ENDCHAR
STARTCHAR eacute
ENCODING 233
SWIDTH 268 0
DWIDTH 7 0
BBX 5 17 1 0
BITMAP
78
E0
00
00
F0
F8
98
98
98
98
F8
80
80
98
98
F8
F0
ENDCHAR
STARTCHAR ecircumflex
ENCODING 234
SWIDTH 268 0
DWIDTH 7 0
BBX 5 17 1 0
BITMAP
70
D8
00
00
F0
F8
98
98
98
98
F8
80
80
98
98
F8
F0
ENDCHAR
STARTCHAR edieresis
ENCODING 235
SWIDTH 268 0
DWIDTH 7 0
BBX 5 16 1 0
BITMAP
D8
00
00
F0
F8
98
98
98
98
F8
80
80
98
98
F8
F0
ENDCHAR
STARTCHAR igrave
ENCODING 236
SWIDTH 122 0
DWIDTH 3 0
BBX 6 18 -2 0
BITMAP
20
F8
1C
00
00
10
10
10
10
10
10
10
10
10
10
10
10
10
ENDCHAR
STARTCHAR iacute
ENCODING 237
SWIDTH 122 0
DWIDTH 3 0
BBX 6 18 -1 0
BITMAP
10
7C
E0
00
00
20
20
20
20
20
20
20
20
20
20
20
20
20
ENDCHAR
STARTCHAR icircumflex
ENCODING 238
SWIDTH 117 0
DWIDTH 3 0
BBX 5 17 -1 0
BITMAP
70
D8
00
00
20
20
20
20
20
20
20
20
20
20
20
20
20
ENDCHAR
STARTCHAR idieresis
ENCODING 239
SWIDTH 117 0
DWIDTH 3 0
BBX 5 16 -1 0
BITMAP
D8
00
00
20
20
20
20
20
20
20
20
20
20
20
20
20
ENDCHAR
STARTCHAR eth
ENCODING 240
SWIDTH 317 0
DWIDTH 8 0
BBX 6 16 1 0
BITMAP
38
18
18
7C
FC
D8
98
98
98
98
98
98
98
98
F8
F8
ENDCHAR
STARTCHAR ntilde
ENCODING 241
SWIDTH 268 0
DWIDTH 7 0
BBX 7 17 0 0
BITMAP
7E
FC
00
00
58
7C
4C
4C
4C
4C
4C
4C
4C
4C
4C
4C
4C
ENDCHAR
STARTCHAR ograve
ENCODING 242
SWIDTH 268 0
DWIDTH 7 0
BBX 6 18 0 0
BITMAP
20
F8
1C
00
00
78
7C
4C
4C
4C
4C
4C
4C
4C
4C
4C
7C
78
ENDCHAR
STARTCHAR oacute
ENCODING 243
SWIDTH 268 0
DWIDTH 7 0
BBX 5 17 1 0
BITMAP
78
E0
00
00
F0
F8
98
98
98
98
98
98
98
98
98
F8
F0
ENDCHAR
STARTCHAR ocircumflex
ENCODING 244
SWIDTH 268 0
DWIDTH 7 0
BBX 5 17 1 0
BITMAP
70
D8
00
00
F0
F8
98
98
98
98
98
98
98
98
98
F8
F0
ENDCHAR
STARTCHAR otilde
ENCODING 245
SWIDTH 268 0
DWIDTH 7 0
BBX 7 17 0 0
BITMAP
7E
FC
00
00
78
7C
4C
4C
4C
4C
4C
4C
4C
4C
4C
7C
78
ENDCHAR
STARTCHAR odieresis
ENCODING 246
SWIDTH 268 0
DWIDTH 7 0
BBX 5 16 1 0
BITMAP
D8
00
00
F0
F8
98
98
98
98
98
98
98
98
98
F8
F0
ENDCHAR
STARTCHAR divide
ENCODING 247
SWIDTH 268 0
DWIDTH 7 0
BBX 5 9 1 4
BITMAP
60
60
00
00
F8
F8
00
60
60
ENDCHAR
STARTCHAR oslash
ENCODING 248
SWIDTH 268 0
DWIDTH 7 0
BBX 5 13 1 0
BITMAP
F8
F8
98
B8
B8
B8
F8
F8
F8
D8
D8
F8
F0
ENDCHAR
STARTCHAR ugrave
ENCODING 249
SWIDTH 268 0
DWIDTH 7 0
BBX 6 18 0 0
BITMAP
20
F8
1C
00
00
4C
4C
4C
4C
4C
4C
4C
4C
4C
4C
4C
7C
7C
ENDCHAR
STARTCHAR uacute
ENCODING 250
SWIDTH 268 0
DWIDTH 7 0
BBX 5 17 1 0
BITMAP
78
E0
00
00
98
98
98
98
98
98
98
98
98
98
98
F8
F8
ENDCHAR
STARTCHAR ucircumflex
ENCODING 251
SWIDTH 268 0
DWIDTH 7 0
BBX 5 17 1 0
BITMAP
70
D8
00
00
98
98
98
98
98
98
98
98
98
98
98
F8
F8
ENDCHAR
STARTCHAR udieresis
ENCODING 252
SWIDTH 268 0
DWIDTH 7 0
BBX 5 16 1 0
BITMAP
D8
00
00
98
98
98
98
98
98
98
98
98
98
98
F8
F8
ENDCHAR
STARTCHAR yacute
ENCODING 253
SWIDTH 292 0
DWIDTH 7 0
BBX 6 21 1 -4
BITMAP
78
E0
00
00
CC
CC
CC
D8
D8
58
58
78
70
70
70
30
30
30
20
E0
C0
ENDCHAR
STARTCHAR thorn
ENCODING 254
SWIDTH 268 0
DWIDTH 7 0
BBX 5 20 1 -4
BITMAP
80
80
80
B0
F8
98
98
98
98
98
98
98
98
98
F8
F0
80
80
80
80
ENDCHAR
STARTCHAR ydieresis
ENCODING 255
SWIDTH 292 0
DWIDTH 7 0
BBX 6 20 1 -4
BITMAP
D8
00
00
CC
CC
CC
D8
D8
58
58
78
70
70
70
30
30
30
20
E0
C0
ENDCHAR
STARTCHAR dotlessi
ENCODING 305
SWIDTH 122 0
DWIDTH 3 0
BBX 1 13 1 0
BITMAP
80
80
80
80
80
80
80
80
80
80
80
80
80
ENDCHAR
STARTCHAR OE
ENCODING 338
SWIDTH 463 0
DWIDTH 12 0
BBX 10 17 1 0
BITMAP
7000
FFC0
CC00
8C00
8C00
8C00
8C00
8C00
8F80
8F80
8C00
8C00
8C00
8C00
8C00
FFC0
FFC0
ENDCHAR
STARTCHAR oe
ENCODING 339
SWIDTH 415 0
DWIDTH 10 0
BBX 9 13 1 0
BITMAP
FF00
FF80
9980
9980
9980
9980
9F80
9800
9800
9980
9980
FF80
FF00
ENDCHAR
STARTCHAR circumflex
ENCODING 710
SWIDTH 292 0
DWIDTH 7 0
BBX 6 3 1 18
BITMAP
30
58
CC
ENDCHAR
STARTCHAR caron
ENCODING 711
SWIDTH 292 0
DWIDTH 7 0
BBX 6 3 1 18
BITMAP
CC
78
30
ENDCHAR
STARTCHAR uni02C9
ENCODING 713
SWIDTH 500 0
DWIDTH 13 0
BBX 6 1 4 15
BITMAP
FC
ENDCHAR
STARTCHAR breve
ENCODING 728
SWIDTH 500 0
DWIDTH 13 0
BBX 6 3 4 13
BITMAP
04
FC
70
ENDCHAR
STARTCHAR dotaccent
ENCODING 729
SWIDTH 500 0
DWIDTH 13 0
BBX 2 3 6 14
BITMAP
80
C0
C0
ENDCHAR
STARTCHAR ring
ENCODING 730
SWIDTH 219 0
DWIDTH 6 0
BBX 4 4 1 18
BITMAP
E0
F0
F0
E0
ENDCHAR
STARTCHAR ogonek
ENCODING 731
SWIDTH 292 0
DWIDTH 7 0
BBX 6 6 1 -4
BITMAP
60
E0
C0
8C
F8
78
ENDCHAR
STARTCHAR tilde
ENCODING 732
SWIDTH 317 0
DWIDTH 8 0
BBX 6 3 1 18
BITMAP
6C
FC
D8
ENDCHAR
STARTCHAR hungarumlaut
ENCODING 733
SWIDTH 500 0
DWIDTH 13 0
BBX 7 4 3 13
BITMAP
36
66
4C
88
ENDCHAR
STARTCHAR semicolon.dup4
ENCODING 894
SWIDTH 146 0
DWIDTH 4 0
BBX 2 11 1 -1
BITMAP
C0
C0
00
00
00
00
00
00
C0
C0
80
ENDCHAR
STARTCHAR endash
ENCODING 8211
SWIDTH 268 0
DWIDTH 7 0
BBX 5 2 1 7
BITMAP
F8
F8
ENDCHAR
STARTCHAR emdash
ENCODING 8212
SWIDTH 341 0
DWIDTH 9 0
BBX 7 2 1 7
BITMAP
FE
FE
ENDCHAR
STARTCHAR quoteleft
ENCODING 8216
SWIDTH 146 0
DWIDTH 4 0
BBX 2 3 1 15
BITMAP
C0
C0
40
ENDCHAR
STARTCHAR quoteright
ENCODING 8217
SWIDTH 146 0
DWIDTH 4 0
BBX 2 3 1 15
BITMAP
C0
C0
80
ENDCHAR
STARTCHAR quotesinglbase
ENCODING 8218
SWIDTH 146 0
DWIDTH 4 0
BBX 2 3 1 -1
BITMAP
C0
C0
80
ENDCHAR
STARTCHAR quotedblleft
ENCODING 8220
SWIDTH 249 0
DWIDTH 6 0
BBX 5 3 1 15
BITMAP
F0
D0
58
ENDCHAR
STARTCHAR quotedblright
ENCODING 8221
SWIDTH 249 0
DWIDTH 6 0
BBX 5 3 1 15
BITMAP
D8
D0
B0
ENDCHAR
STARTCHAR quotedblbase
ENCODING 8222
SWIDTH 244 0
DWIDTH 6 0
BBX 5 3 1 -1
BITMAP
D8
D0
B0
ENDCHAR
STARTCHAR dagger
ENCODING 8224
SWIDTH 495 0
DWIDTH 12 0
BBX 11 18 1 -1
BITMAP
0E00
0E00
0600
6460
FBE0
74E0
0400
0600
0E00
0E00
0600
0600
0600
0400
0400
0400
0400
0400
ENDCHAR
STARTCHAR daggerdbl
ENCODING 8225
SWIDTH 495 0
DWIDTH 12 0
BBX 11 20 1 -3
BITMAP
0E00
0E00
0600
6460
FBE0
74E0
0400
0400
0600
0E00
0E00
0600
0400
4440
F1E0
75E0
0400
0600
0E00
0E00
ENDCHAR
STARTCHAR bullet
ENCODING 8226
SWIDTH 500 0
DWIDTH 13 0
BBX 7 7 3 5
BITMAP
3C
7E
FE
FE
FE
7E
38
ENDCHAR
STARTCHAR ellipsis
ENCODING 8230
SWIDTH 366 0
DWIDTH 9 0
BBX 8 2 1 0
BITMAP
9B
9B
ENDCHAR
STARTCHAR perthousand
ENCODING 8240
SWIDTH 561 0
DWIDTH 14 0
BBX 13 17 1 0
BITMAP
7000
F980
DB00
9B00
9F00
9E00
DE00
FC00
0C00
1F70
1FF8
3D98
3C98
6C98
6C98
CFF8
C7F0
ENDCHAR
STARTCHAR guilsinglleft
ENCODING 8249
SWIDTH 292 0
DWIDTH 7 0
BBX 5 12 1 2
BITMAP
18
38
30
60
E0
C0
C0
60
70
30
18
18
ENDCHAR
STARTCHAR guilsinglright
ENCODING 8250
SWIDTH 292 0
DWIDTH 7 0
BBX 6 12 1 2
BITMAP
C0
60
70
30
18
1C
18
38
30
60
E0
C0
ENDCHAR
STARTCHAR fraction
ENCODING 8260
SWIDTH 268 0
DWIDTH 7 0
BBX 5 16 1 0
BITMAP
18
18
10
30
30
30
30
60
60
60
60
40
C0
C0
C0
C0
ENDCHAR
STARTCHAR franc
ENCODING 8355
SWIDTH 341 0
DWIDTH 9 0
BBX 7 16 1 0
BITMAP
7E
60
60
60
60
60
60
7C
7C
60
60
60
F0
F0
60
60
ENDCHAR
STARTCHAR lira
ENCODING 8356
SWIDTH 292 0
DWIDTH 7 0
BBX 6 17 1 0
BITMAP
3C
7C
60
60
60
60
60
60
F0
F0
60
60
60
60
60
FC
FC
ENDCHAR
STARTCHAR peseta
ENCODING 8359
SWIDTH 341 0
DWIDTH 9 0
BBX 7 16 1 0
BITMAP
7C
66
66
66
66
66
66
7E
7C
60
60
60
F0
F0
60
60
ENDCHAR
STARTCHAR Euro
ENCODING 8364
SWIDTH 341 0
DWIDTH 9 0
BBX 7 17 1 0
BITMAP
3C
7E
66
66
66
60
F8
F8
60
60
F8
E0
60
66
66
7E
7C
ENDCHAR
STARTCHAR uni2116
ENCODING 8470
SWIDTH 329 0
DWIDTH 8 0
BBX 7 8 1 8
BITMAP
AE
AA
AA
EA
EA
EA
AA
AC
ENDCHAR
STARTCHAR trademark
ENCODING 8482
SWIDTH 378 0
DWIDTH 9 0
BBX 7 8 2 8
BITMAP
B2
B6
B6
B6
AE
AA
AA
AA
ENDCHAR
STARTCHAR partialdiff
ENCODING 8706
SWIDTH 805 0
DWIDTH 20 0
BBX 18 18 0 0
BITMAP
800040
000000
000000
000000
000000
000000
000000
000000
000000
000000
000000
000000
000000
000000
000000
000000
000000
000040
ENDCHAR
STARTCHAR Delta
ENCODING 8710
SWIDTH 805 0
DWIDTH 20 0
BBX 18 18 0 0
BITMAP
800040
000000
000000
000000
000000
000000
000000
000000
000000
000000
000000
000000
000000
000000
000000
000000
000000
000040
ENDCHAR
STARTCHAR product
ENCODING 8719
SWIDTH 805 0
DWIDTH 20 0
BBX 18 18 0 0
BITMAP
800040
000000
000000
000000
000000
000000
000000
000000
000000
000000
000000
000000
000000
000000
000000
000000
000000
000040
ENDCHAR
STARTCHAR summation
ENCODING 8721
SWIDTH 805 0
DWIDTH 20 0
BBX 18 18 0 0
BITMAP
800040
000000
000000
000000
000000
000000
000000
000000
000000
000000
000000
000000
000000
000000
000000
000000
000000
000040
ENDCHAR
STARTCHAR minus
ENCODING 8722
SWIDTH 268 0
DWIDTH 7 0
BBX 5 2 1 7
BITMAP
F8
F8
ENDCHAR
STARTCHAR fraction.dup5
ENCODING 8725
SWIDTH 268 0
DWIDTH 7 0
BBX 5 16 1 0
BITMAP
18
18
10
30
30
30
30
60
60
60
60
40
C0
C0
C0
C0
ENDCHAR
STARTCHAR periodcentered.dup6
ENCODING 8729
SWIDTH 122 0
DWIDTH 3 0
BBX 1 2 1 8
BITMAP
80
80
ENDCHAR
STARTCHAR approxequal
ENCODING 8776
SWIDTH 805 0
DWIDTH 20 0
BBX 18 18 0 0
BITMAP
800040
000000
000000
000000
000000
000000
000000
000000
000000
000000
000000
000000
000000
000000
000000
000000
000000
000040
ENDCHAR
STARTCHAR lessequal
ENCODING 8804
SWIDTH 805 0
DWIDTH 20 0
BBX 18 18 0 0
BITMAP
800040
000000
000000
000000
000000
000000
000000
000000
000000
000000
000000
000000
000000
000000
000000
000000
000000
000040
ENDCHAR
STARTCHAR greaterequal
ENCODING 8805
SWIDTH 805 0
DWIDTH 20 0
BBX 18 18 0 0
BITMAP
800040
000000
000000
000000
000000
000000
000000
000000
000000
000000
000000
000000
000000
000000
000000
000000
000000
000040
ENDCHAR
STARTCHAR uniF001
ENCODING 61441
SWIDTH 523 0
DWIDTH 13 0
BBX 1 1 0 0
BITMAP
00
ENDCHAR
STARTCHAR uniF002
ENCODING 61442
SWIDTH 527 0
DWIDTH 13 0
BBX 1 1 0 0
BITMAP
00
ENDCHAR
STARTCHAR uniF001.dup7
ENCODING 64257
SWIDTH 523 0
DWIDTH 13 0
BBX 1 1 0 0
BITMAP
00
ENDCHAR
STARTCHAR uniF002.dup8
ENCODING 64258
SWIDTH 527 0
DWIDTH 13 0
BBX 1 1 0 0
BITMAP
00
ENDCHAR
STARTCHAR .notdef
ENCODING -1
SWIDTH 805 0
DWIDTH 20 0
BBX 18 18 0 0
BITMAP
800040
000000
000000
000000
000000
000000
000000
000000
000000
000000
000000
000000
000000
000000
000000
000000
000000
000040
ENDCHAR
STARTCHAR nonmarkingreturn
ENCODING -1
SWIDTH 248 0
DWIDTH 6 0
BBX 1 1 0 0
BITMAP
00
ENDCHAR
ENDFONT
